<?xml version="1.0" standalone="no"?>
<!DOCTYPE svg PUBLIC "-//W3C//DTD SVG 20010904//EN"
        "http://www.w3.org/TR/2001/REC-SVG-20010904/DTD/svg10.dtd">
<svg version="1.0" xmlns="http://www.w3.org/2000/svg"
     width="57.000000pt" height="60.000000pt" viewBox="0 0 285.000000 300.000000"
     >
    <g transform="translate(0.000000,300.000000) scale(0.050000,-0.050000)"
       fill="none" stroke="none">
        <path d="M2397 5960 c-956 -150 -1797 -772 -2228 -1647 -178 -362 -188 -484
-42 -521 100 -25 141 13 219 201 943 2274 4115 2252 5024 -35 69 -176 152
-220 257 -137 227 179 -469 1236 -1082 1645 -622 414 -1446 604 -2148 494z"
              fill="lightblue"/>
        <path d="M2412 5408 c-1777 -321 -2607 -2431 -1523 -3870 1094 -1452 3318
-1263 4145 353 916 1790 -639 3875 -2622 3517z m857 -301 c230 -43 519 -147
410 -147 -150 0 -659 -419 -659 -541 0 -197 141 -196 353 2 414 386 891 357
1103 -67 158 -316 87 -542 -287 -915 l-229 -229 -174 175 -175 174 205 208
c222 225 249 288 164 373 -87 87 -151 58 -374 -164 l-205 -204 -516 510 c-522
518 -585 570 -780 649 l-109 45 110 41 c363 136 760 167 1163 90z m-1216 -475
c192 -87 2380 -2289 2447 -2462 204 -533 -331 -1047 -842 -807 -149 70 -2367
2280 -2441 2433 -256 525 299 1079 836 836z m-1041 -1078 c28 -43 158 -188
289 -323 l237 -243 -230 -229 c-260 -257 -336 -357 -388 -504 l-36 -101 -31
60 c-187 362 -190 1125 -5 1556 l35 80 38 -109 c21 -60 62 -144 91 -187z
m3850 211 c175 -447 171 -1126 -7 -1545 -27 -62 -32 -65 -45 -30 -71 197 -145
305 -385 552 l-250 258 248 256 c235 241 377 443 377 537 0 47 40 29 62 -28z
m-2947 -1150 l165 -166 -220 -219 c-247 -246 -273 -306 -167 -389 98 -77 135
-59 376 179 l222 219 165 -165 c90 -91 164 -174 164 -186 0 -44 -470 -480
-570 -528 -515 -250 -1084 326 -833 843 41 83 486 577 520 577 8 0 88 -74 178
-165z m1478 -1443 c46 -30 135 -76 198 -102 136 -55 129 -61 -139 -139 -437
-126 -1005 -102 -1382 60 l-80 34 105 36 c158 55 293 155 534 397 l219 221
231 -226 c127 -124 269 -251 314 -281z"
              fill="lightblue"/>
        <path d="M1700 4120 c-96 -96 -115 -74 1045 -1235 597 -598 1104 -1091 1128
-1097 90 -23 166 46 167 152 0 112 -2112 2220 -2225 2220 -48 0 -89 -14 -115
-40z"
              fill="lightblue"/>
        <path d="M80 2120 c-69 -69 -51 -153 99 -452 1039 -2069 3903 -2236 5179 -301
313 476 380 793 166 793 -85 0 -116 -35 -194 -219 -818 -1923 -3449 -2209
-4670 -506 -115 160 -339 582 -340 639 0 78 -174 112 -240 46z"
              fill="lightblue"/>
    </g>
</svg>