<?xml version="1.0" standalone="no"?>
<!DOCTYPE svg PUBLIC "-//W3C//DTD SVG 20010904//EN"
		"http://www.w3.org/TR/2001/REC-SVG-20010904/DTD/svg10.dtd">
<svg version="1.0" xmlns="http://www.w3.org/2000/svg"
	 width="224.000000pt" height="159.000000pt" viewBox="0 0 224.000000 159.000000"
	 preserveAspectRatio="xMidYMid meet">
	<g transform="translate(0.000000,159.000000) scale(0.100000,-0.100000)"
	   fill="#000000" stroke="none">
		<path d="M1078 1273 l-3 -218 -43 3 c-37 3 -47 -1 -77 -31 -48 -48 -49 -95 -1
-143 36 -36 67 -42 111 -22 48 22 54 49 48 216 -5 130 -4 152 9 152 8 0 25
-11 38 -25 25 -26 30 -68 16 -117 -6 -22 -5 -28 7 -28 41 0 80 116 63 184 -3
14 -31 55 -61 93 -30 37 -61 86 -68 107 -7 22 -19 42 -25 44 -9 3 -12 -54 -14
-215z"/>
		<path d="M516 1248 c-3 -13 -6 -177 -6 -365 l0 -343 -35 0 -34 0 -3 117 c-3
103 -5 118 -20 121 -16 3 -18 -8 -18 -117 l0 -121 -25 0 c-21 0 -25 5 -25 29
0 39 -9 61 -26 61 -10 0 -14 -13 -14 -46 0 -44 -1 -45 -27 -42 -21 2 -29 9
-31 28 -7 53 -41 47 -42 -7 0 -20 -6 -22 -62 -25 -38 -2 -63 -8 -66 -15 -3
-10 14 -13 62 -13 63 0 66 -1 66 -24 0 -35 18 -78 30 -71 5 3 10 26 10 51 0
42 1 44 30 44 29 0 30 -2 30 -44 0 -25 4 -47 9 -51 14 -8 31 28 31 64 0 26 4
31 25 31 l25 0 0 -109 c0 -120 4 -143 26 -134 11 4 14 31 14 124 l0 119 35 0
35 0 0 -175 0 -175 85 0 85 0 2 313 3 312 154 -220 c84 -121 158 -224 162
-230 5 -5 9 56 9 141 l0 151 -213 296 c-269 375 -268 373 -281 325z"/>
		<path d="M1401 946 l-231 -325 0 -140 c0 -78 4 -141 8 -141 4 0 75 97 157 215
83 118 153 215 158 215 4 0 7 -137 7 -305 l0 -305 79 0 78 0 6 83 c4 45 7 124
7 175 l0 92 30 0 30 0 0 -72 c0 -200 32 -241 40 -52 5 111 6 119 25 119 18 0
20 -8 23 -67 2 -50 7 -68 17 -68 10 0 15 18 17 68 3 64 4 67 28 67 22 0 25 -5
28 -40 6 -76 42 -69 42 8 l0 37 76 0 c56 0 75 3 72 13 -3 8 -30 13 -76 15
l-72 3 0 39 c0 48 -8 70 -26 70 -10 0 -14 -15 -14 -56 0 -54 0 -55 -27 -52
-24 3 -28 8 -31 41 -2 23 -8 37 -17 37 -9 0 -15 -14 -17 -37 -2 -31 -7 -39
-25 -41 -23 -3 -23 -2 -23 117 0 74 -4 122 -11 126 -6 4 -12 5 -14 3 -2 -2 -7
-59 -11 -126 l-7 -122 -29 0 -28 0 0 273 c0 321 -8 457 -25 457 -7 0 -116
-146 -244 -324z"/>
		<path d="M1070 760 L1120 760 L1120 160 L1070 160" fill="currentColor" stroke="black" stroke-width="2"/>
		<path d="M750 460 L790 460 L790 560 L750 560" fill="currentColor" stroke="black" stroke-width="2"/>
		<path d="M1400 460 L1440 460 L1440 550 L1400 550" fill="currentColor" stroke="black" stroke-width="2"/>
		<path d="M830 360 L870 360 L870 460 L830 460" fill="currentColor" stroke="black" stroke-width="2"/>
		<path d="M1300 360 L1340 360 L1340 460 L1300 460" fill="currentColor" stroke="black" stroke-width="2"/>
		<path d="M930 260 L970 260 L970 360 L930 360" fill="currentColor" stroke="black" stroke-width="2"/>
		<path d="M1200 260 L1240 260 L1240 360 L1200 360" fill="currentColor" stroke="black" stroke-width="2"/>
	</g>
</svg>
